<svg width="107" height="107" viewBox="0 0 107 107" fill="none" xmlns="http://www.w3.org/2000/svg">
<circle cx="53.5" cy="53.5" r="53.5" fill="#F3F3F3"/>
<path d="M29.4766 41.5625H23.6562V70H28.0508V60.3516L27.7969 48.125L31.7617 61.2305H34.2031L38.5781 47.6562L38.3047 60.3516V70H42.7188V41.5625H36.8789L32.9922 53.7305L29.4766 41.5625ZM50.6711 67.1875C50.6711 68.0859 50.9641 68.8477 51.55 69.4727C52.149 70.0846 52.9823 70.3906 54.05 70.3906C55.1047 70.3906 55.9315 70.0846 56.5305 69.4727C57.1424 68.8607 57.4484 68.099 57.4484 67.1875C57.4484 66.276 57.149 65.5078 56.55 64.8828C55.951 64.2448 55.1177 63.9258 54.05 63.9258C52.9562 63.9258 52.1164 64.2448 51.5305 64.8828C50.9576 65.5208 50.6711 66.2891 50.6711 67.1875ZM85.7328 45.4492V41.5625H63.5844V45.4492H72.2953V70H76.9633V45.4492H85.7328Z" fill="#1B1C1E"/>
</svg>
