<svg width="111" height="111" viewBox="0 0 111 111" fill="none" xmlns="http://www.w3.org/2000/svg">
<circle cx="55.5" cy="55.5" r="55.5" fill="#131313"/>
<path d="M26.1719 40.875H19.1875V75H24.4609V63.4219L24.1562 48.75L28.9141 64.4766H31.8438L37.0938 48.1875L36.7656 63.4219V75H42.0625V40.875H35.0547L30.3906 55.4766L26.1719 40.875ZM51.6053 71.625C51.6053 72.7031 51.9569 73.6172 52.66 74.3672C53.3787 75.1016 54.3787 75.4688 55.66 75.4688C56.9256 75.4688 57.9178 75.1016 58.6366 74.3672C59.3709 73.6328 59.7381 72.7188 59.7381 71.625C59.7381 70.5312 59.3787 69.6094 58.66 68.8594C57.9412 68.0938 56.9412 67.7109 55.66 67.7109C54.3475 67.7109 53.3397 68.0938 52.6366 68.8594C51.9491 69.625 51.6053 70.5469 51.6053 71.625ZM93.6794 45.5391V40.875H67.1012V45.5391H77.5544V75H83.1559V45.5391H93.6794Z" fill="#FCFCFD"/>
</svg>
