<svg width="124" height="70" viewBox="0 0 124 70" fill="none" xmlns="http://www.w3.org/2000/svg">
<path d="M122.5 34.7059C122.5 44.0774 120.33 52.4879 116.898 58.5034C113.442 64.5618 108.897 67.9118 104.202 67.9118C99.5064 67.9118 94.9612 64.5618 91.5051 58.5034C88.0735 52.4879 85.9034 44.0774 85.9034 34.7059C85.9034 25.3344 88.0735 16.9238 91.5051 10.9084C94.9612 4.84998 99.5064 1.5 104.202 1.5C108.897 1.5 113.442 4.84998 116.898 10.9084C120.33 16.9238 122.5 25.3344 122.5 34.7059Z" fill="#121314" stroke="#F7FBFF" stroke-width="3"/>
<rect x="21.2983" y="1.5" width="81.4034" height="66.4118" fill="#121314" stroke="#F7FBFF" stroke-width="3"/>
<path d="M38.0966 34.7059C38.0966 44.0774 35.9265 52.4879 32.4949 58.5034C29.0389 64.5618 24.4936 67.9118 19.7983 67.9118C15.103 67.9118 10.5578 64.5618 7.1017 58.5034C3.67011 52.4879 1.5 44.0774 1.5 34.7059C1.5 25.3344 3.67011 16.9238 7.1017 10.9084C10.5578 4.84998 15.103 1.5 19.7983 1.5C24.4936 1.5 29.0389 4.84998 32.4949 10.9084C35.9265 16.9238 38.0966 25.3344 38.0966 34.7059Z" fill="#121314" stroke="#F7FBFF" stroke-width="3"/>
<rect x="94" y="3" width="11" height="63.4" fill="#121314"/>
</svg>
