<svg width="140" height="70" viewBox="0 0 140 70" fill="none" xmlns="http://www.w3.org/2000/svg">
<path d="M139 34.7059C139 44.1265 136.539 52.6088 132.612 58.7052C128.679 64.812 123.365 68.4118 117.647 68.4118C111.929 68.4118 106.615 64.812 102.682 58.7052C98.7554 52.6088 96.2941 44.1265 96.2941 34.7059C96.2941 25.2852 98.7554 16.803 102.682 10.7066C106.615 4.59975 111.929 1 117.647 1C123.365 1 128.679 4.59975 132.612 10.7066C136.539 16.803 139 25.2852 139 34.7059Z" fill="#121314" stroke="#F7FBFF" stroke-width="2"/>
<rect x="23.3529" y="1" width="93.2941" height="67.4118" fill="#121314" stroke="#F7FBFF" stroke-width="2"/>
<path d="M43.7059 34.7059C43.7059 44.1265 41.2446 52.6088 37.3181 58.7052C33.3849 64.812 28.0708 68.4118 22.3529 68.4118C16.6351 68.4118 11.321 64.812 7.38774 58.7052C3.46127 52.6088 1 44.1265 1 34.7059C1 25.2852 3.46127 16.803 7.38774 10.7066C11.321 4.59975 16.6351 1 22.3529 1C28.0708 1 33.3849 4.59975 37.3181 10.7066C41.2446 16.803 43.7059 25.2852 43.7059 34.7059Z" fill="#121314" stroke="#F7FBFF" stroke-width="2"/>
<line x1="116.5" y1="2" x2="116.5" y2="67.4" stroke="#121314" stroke-width="3"/>
</svg>
