<svg width="144" height="31" viewBox="0 0 144 31" fill="none" xmlns="http://www.w3.org/2000/svg">
<path d="M27.52 2.4V30H24.72V7.96L14.88 30H12.84L3 8.04V30H0.2V2.4H3.16L13.84 26.32L24.52 2.4H27.52ZM32.7519 30.2C32.1652 30.2 31.6719 30 31.2719 29.6C30.8985 29.2 30.7119 28.7067 30.7119 28.12C30.7119 27.5333 30.8985 27.0533 31.2719 26.68C31.6719 26.28 32.1652 26.08 32.7519 26.08C33.3119 26.08 33.7785 26.28 34.1519 26.68C34.5519 27.0533 34.7519 27.5333 34.7519 28.12C34.7519 28.7067 34.5519 29.2 34.1519 29.6C33.7785 30 33.3119 30.2 32.7519 30.2ZM63.6741 2.04V4.36H55.9141V30H53.1141V4.36H45.3141V2.04H63.6741ZM65.2153 19.04C65.2153 16.8 65.6553 14.84 66.5353 13.16C67.442 11.4533 68.682 10.1467 70.2553 9.24C71.8553 8.30667 73.6553 7.84 75.6553 7.84C77.7353 7.84 79.522 8.32 81.0153 9.28C82.5353 10.24 83.6286 11.4667 84.2953 12.96V8.16H87.0953V30H84.2953V25.16C83.602 26.6533 82.4953 27.8933 80.9753 28.88C79.482 29.84 77.6953 30.32 75.6153 30.32C73.642 30.32 71.8553 29.8533 70.2553 28.92C68.682 27.9867 67.442 26.6667 66.5353 24.96C65.6553 23.2533 65.2153 21.28 65.2153 19.04ZM84.2953 19.08C84.2953 17.32 83.9353 15.7733 83.2153 14.44C82.4953 13.1067 81.5086 12.08 80.2553 11.36C79.0286 10.64 77.6686 10.28 76.1753 10.28C74.6286 10.28 73.242 10.6267 72.0153 11.32C70.7886 12.0133 69.8153 13.0267 69.0953 14.36C68.402 15.6667 68.0553 17.2267 68.0553 19.04C68.0553 20.8267 68.402 22.4 69.0953 23.76C69.8153 25.0933 70.7886 26.12 72.0153 26.84C73.242 27.5333 74.6286 27.88 76.1753 27.88C77.6686 27.88 79.0286 27.52 80.2553 26.8C81.5086 26.08 82.4953 25.0533 83.2153 23.72C83.9353 22.3867 84.2953 20.84 84.2953 19.08ZM94.6875 0.4V30H91.8875V0.4H94.6875ZM109.828 7.76C111.481 7.76 112.961 8.10666 114.268 8.8C115.601 9.49333 116.641 10.56 117.388 12C118.161 13.4133 118.548 15.1467 118.548 17.2V30H115.788V17.52C115.788 15.1467 115.188 13.3333 113.988 12.08C112.815 10.8267 111.201 10.2 109.148 10.2C107.041 10.2 105.361 10.8667 104.108 12.2C102.855 13.5333 102.228 15.4933 102.228 18.08V30H99.4281V0.4H102.228V11.88C102.921 10.5733 103.935 9.56 105.268 8.84C106.628 8.12 108.148 7.76 109.828 7.76ZM121.861 19.04C121.861 16.8 122.301 14.84 123.181 13.16C124.087 11.4533 125.327 10.1467 126.901 9.24C128.501 8.30667 130.301 7.84 132.301 7.84C134.381 7.84 136.167 8.32 137.661 9.28C139.181 10.24 140.274 11.4667 140.941 12.96V8.16H143.741V30H140.941V25.16C140.247 26.6533 139.141 27.8933 137.621 28.88C136.127 29.84 134.341 30.32 132.261 30.32C130.287 30.32 128.501 29.8533 126.901 28.92C125.327 27.9867 124.087 26.6667 123.181 24.96C122.301 23.2533 121.861 21.28 121.861 19.04ZM140.941 19.08C140.941 17.32 140.581 15.7733 139.861 14.44C139.141 13.1067 138.154 12.08 136.901 11.36C135.674 10.64 134.314 10.28 132.821 10.28C131.274 10.28 129.887 10.6267 128.661 11.32C127.434 12.0133 126.461 13.0267 125.741 14.36C125.047 15.6667 124.701 17.2267 124.701 19.04C124.701 20.8267 125.047 22.4 125.741 23.76C126.461 25.0933 127.434 26.12 128.661 26.84C129.887 27.5333 131.274 27.88 132.821 27.88C134.314 27.88 135.674 27.52 136.901 26.8C138.154 26.08 139.141 25.0533 139.861 23.72C140.581 22.3867 140.941 20.84 140.941 19.08Z" fill="white"/>
</svg>
