<svg width="63" height="30" viewBox="0 0 63 30" fill="none" xmlns="http://www.w3.org/2000/svg">
<path d="M6.47656 0.5625H0.65625V29H5.05078V19.3516L4.79688 7.125L8.76172 20.2305H11.2031L15.5781 6.65625L15.3047 19.3516V29H19.7188V0.5625H13.8789L9.99219 12.7305L6.47656 0.5625ZM27.6711 26.1875C27.6711 27.0859 27.9641 27.8477 28.55 28.4727C29.149 29.0846 29.9823 29.3906 31.05 29.3906C32.1047 29.3906 32.9315 29.0846 33.5305 28.4727C34.1424 27.8607 34.4484 27.099 34.4484 26.1875C34.4484 25.276 34.149 24.5078 33.55 23.8828C32.951 23.2448 32.1177 22.9258 31.05 22.9258C29.9562 22.9258 29.1164 23.2448 28.5305 23.8828C27.9576 24.5208 27.6711 25.2891 27.6711 26.1875ZM62.7328 4.44922V0.5625H40.5844V4.44922H49.2953V29H53.9633V4.44922H62.7328Z" fill="#FCFCFD"/>
</svg>
